<svg xmlns="http://www.w3.org/2000/svg" viewBox="0 0 30 30"><defs><style>.cls-1{isolation:isolate;}.cls-2{fill:#fff;fill-rule:evenodd;}</style></defs><title>Ресурс 1</title><g id="Слой_2" data-name="Слой 2"><g id="Фигура_11" data-name="Фигура 11" class="cls-1"><g id="Фигура_11-2" data-name="Фигура 11"><path class="cls-2" d="M9.26,20.16a.47.47,0,0,0-.47.47v1.64a.47.47,0,0,0,.94,0V20.62A.47.47,0,0,0,9.26,20.16Zm0,3.28a.47.47,0,0,0-.47.47v1.64a.47.47,0,0,0,.94,0V23.91A.47.47,0,0,0,9.26,23.44ZM26.8,0H3.2A3.21,3.21,0,0,0,0,3.2V26.8A3.21,3.21,0,0,0,3.2,30H26.8A3.21,3.21,0,0,0,30,26.8V3.2A3.21,3.21,0,0,0,26.8,0Zm1.33,26.8a1.33,1.33,0,0,1-1.33,1.33H9.73v-.94a.47.47,0,0,0-.94,0v.94H3.2A1.33,1.33,0,0,1,1.88,26.8V19.67L4.69,18a1.27,1.27,0,0,0,2.05-.64H8.12a1.29,1.29,0,0,0,.69.62.45.45,0,0,0,0,.09V19a.47.47,0,0,0,.94,0V18a.45.45,0,0,0,0-.09,1.29,1.29,0,0,0,.83-1.14l1.74-.87a1.28,1.28,0,0,0,1.87-.48h1.47a1.26,1.26,0,0,0,1.45.66l2.5,3.74a1.29,1.29,0,1,0,2.13.35l2.05-2.05a1.28,1.28,0,0,0,1.75-.83h2.63ZM5.16,17a.35.35,0,1,1,.35.35A.35.35,0,0,1,5.16,17Zm3.75-.23a.35.35,0,1,1,.35.35A.35.35,0,0,1,8.91,16.76Zm3.75-1.87a.35.35,0,1,1,.35.35A.35.35,0,0,1,12.66,14.88Zm3.75,0a.35.35,0,1,1,.35.35A.35.35,0,0,1,16.41,14.88Zm3.75,5.86a.35.35,0,1,1,.35.35A.35.35,0,0,1,20.16,20.74ZM23.91,17a.35.35,0,1,1,.35.35A.35.35,0,0,1,23.91,17Zm4.22-.59H25.4a1.29,1.29,0,0,0-2.32,1.1L21,19.56a1.28,1.28,0,0,0-.52-.11h-.09l-2.58-3.87a1.29,1.29,0,1,0-2.31-1.06H14.24a1.29,1.29,0,0,0-2.52.35,1.27,1.27,0,0,0,0,.28l-1.52.76A1.28,1.28,0,0,0,8,16.41H6.65a1.28,1.28,0,0,0-2.41.76L1.88,18.58V8H16.41V9.14a.47.47,0,0,0,.94,0V8H28.13Zm0-9.37H1.88V3.2A1.33,1.33,0,0,1,3.2,1.88H26.8A1.33,1.33,0,0,1,28.13,3.2ZM4.57,3.28A1.29,1.29,0,1,0,5.86,4.57,1.29,1.29,0,0,0,4.57,3.28Zm0,1.64a.35.35,0,1,1,.35-.35A.35.35,0,0,1,4.57,4.92Zm6.56-1.64a1.29,1.29,0,1,0,1.29,1.29A1.29,1.29,0,0,0,11.13,3.28Zm0,1.64a.35.35,0,1,1,.35-.35A.35.35,0,0,1,11.13,4.92Zm5.74,5.39a.47.47,0,0,0-.47.47v1.64a.47.47,0,0,0,.94,0V10.78A.47.47,0,0,0,16.88,10.31Zm-9-7A1.29,1.29,0,1,0,9.14,4.57,1.29,1.29,0,0,0,7.85,3.28Zm0,1.64a.35.35,0,1,1,.35-.35A.35.35,0,0,1,7.85,4.92Z"/></g></g></g></svg>