<svg xmlns="http://www.w3.org/2000/svg" viewBox="0 0 30 28"><defs><style>.cls-1{isolation:isolate;}.cls-2{fill:#fff;fill-rule:evenodd;}</style></defs><title>Ресурс 2</title><g id="Слой_2" data-name="Слой 2"><g id="Фигура_12" data-name="Фигура 12" class="cls-1"><g id="Фигура_12-2" data-name="Фигура 12"><path class="cls-2" d="M27,3.73H18.2L16.06,1.6A5.46,5.46,0,0,0,12.18,0h-7A2.4,2.4,0,0,0,2.81,2.4V3.74A3,3,0,0,0,0,6.71V25a3,3,0,0,0,3,3H27a3,3,0,0,0,3-3V6.71A3,3,0,0,0,27,3.73ZM28.13,25A1.11,1.11,0,0,1,27,26.13H3A1.11,1.11,0,0,1,1.88,25V16A1.11,1.11,0,0,1,3,14.93h9.59l2.69-2.68a3.6,3.6,0,0,1,2.55-1.05h7a.53.53,0,0,1,.53.53v3.2H27A1.11,1.11,0,0,1,28.13,16Zm-23.91-12V8.34a.41.41,0,0,1,.41-.41H25.37a.41.41,0,0,1,.41.41V9.56a2.39,2.39,0,0,0-1-.22h-7a5.46,5.46,0,0,0-3.88,1.6L11.8,13.07Zm23.91.23a3,3,0,0,0-.94-.22V11.73a2.37,2.37,0,0,0-.47-1.41v-2A1.35,1.35,0,0,0,25.37,7H4.63A1.35,1.35,0,0,0,3.28,8.34v4.72H3a3,3,0,0,0-1.11.22V6.71A1.11,1.11,0,0,1,3,5.6h1.7V2.4a.53.53,0,0,1,.53-.53h7a3.6,3.6,0,0,1,2.55,1.05L17.42,5.6H27a1.11,1.11,0,0,1,1.11,1.11Z"/></g></g></g></svg>