<svg xmlns="http://www.w3.org/2000/svg" viewBox="0 0 30 30"><defs><style>.cls-1{isolation:isolate;}.cls-2{fill:#fff;fill-rule:evenodd;}</style></defs><title>Ресурс 3</title><g id="Слой_2" data-name="Слой 2"><g id="Фигура_14" data-name="Фигура 14" class="cls-1"><g id="Фигура_14-2" data-name="Фигура 14"><path class="cls-2" d="M25.31,9.84H18.75a.47.47,0,0,0,0,.94h6.56a.47.47,0,0,0,0-.94ZM27.71,0H2.29A2.29,2.29,0,0,0,0,2.29V18.34a2.29,2.29,0,0,0,2.29,2.29h8a2.81,2.81,0,0,0,1.81,2.62l-3.53,5.3a.94.94,0,1,0,1.56,1l4.1-6.15h1.5l4.1,6.15a.94.94,0,1,0,1.56-1l-3.53-5.3a2.81,2.81,0,0,0,1.81-2.62h8A2.29,2.29,0,0,0,30,18.34V2.29A2.29,2.29,0,0,0,27.71,0ZM16.88,21.56H13.13a.94.94,0,0,1-.94-.94h5.63A.94.94,0,0,1,16.88,21.56Zm11.25-3.22a.42.42,0,0,1-.41.41H2.29a.42.42,0,0,1-.41-.41V2.29a.42.42,0,0,1,.41-.41H27.71a.42.42,0,0,1,.41.41Zm-2.81-5.68H18.75a.47.47,0,0,0,0,.94h6.56a.47.47,0,0,0,0-.94Zm-15-8.44a6.09,6.09,0,1,0,6.09,6.09A6.1,6.1,0,0,0,10.31,4.22Zm0,.94a5.12,5.12,0,0,1,2.24.52L10.44,9.2,9.14,5.3A5.14,5.14,0,0,1,10.31,5.16ZM5.16,10.31A5.16,5.16,0,0,1,8.24,5.59L9.69,9.94l-4.52.75C5.17,10.57,5.16,10.44,5.16,10.31Zm5.16,5.16a5.16,5.16,0,0,1-5-3.85l5.06-.84h.07l.06,0,.07,0,.08-.09,0,0,2.64-4.4a5.15,5.15,0,0,1-3,9.31ZM25.31,7H18.75a.47.47,0,0,0,0,.94h6.56a.47.47,0,0,0,0-.94Z"/></g></g></g></svg>