<svg xmlns="http://www.w3.org/2000/svg" viewBox="0 0 30 27"><defs><style>.cls-1{isolation:isolate;}.cls-2{fill:#fff;fill-rule:evenodd;}</style></defs><title>Ресурс 4</title><g id="Слой_2" data-name="Слой 2"><g id="Фигура_15" data-name="Фигура 15" class="cls-1"><g id="Фигура_15-2" data-name="Фигура 15"><path class="cls-2" d="M26.48,3.72H20.63V2.67A2.69,2.69,0,0,0,17.93,0H12.07A2.69,2.69,0,0,0,9.38,2.67V3.72H3.52A3.51,3.51,0,0,0,0,7.22V23.51A3.51,3.51,0,0,0,3.52,27h23A3.51,3.51,0,0,0,30,23.51V7.22A3.51,3.51,0,0,0,26.48,3.72ZM11.25,2.67a.82.82,0,0,1,.82-.81h5.86a.82.82,0,0,1,.82.81V3.72h-7.5ZM5.16,25.14H3.52a1.64,1.64,0,0,1-1.64-1.63V16.74a3,3,0,0,0,1.64.48H5.16Zm2.81,0H6.09V17.22H8Zm13.13,0H8.91V17.22h2.81V18.7A2.26,2.26,0,0,0,14,20.95h2a2.26,2.26,0,0,0,2.27-2.25V17.22h2.81ZM12.66,18.7v-2A1.33,1.33,0,0,1,14,15.36h2a1.33,1.33,0,0,1,1.33,1.32v2A1.33,1.33,0,0,1,16,20H14A1.33,1.33,0,0,1,12.66,18.7Zm11.25,6.44H22V17.22h1.88Zm4.22-1.63a1.64,1.64,0,0,1-1.64,1.63H24.84V17.22h1.64a3,3,0,0,0,1.64-.48Zm0-8a2.1,2.1,0,0,1-1.64.79H18.24A2.26,2.26,0,0,0,16,14.43H14a2.26,2.26,0,0,0-2.23,1.86H3.52a2.1,2.1,0,0,1-1.64-.79V7.22A1.64,1.64,0,0,1,3.52,5.59h23a1.64,1.64,0,0,1,1.64,1.63Z"/></g></g></g></svg>