<svg xmlns="http://www.w3.org/2000/svg" viewBox="0 0 30 23"><defs><style>.cls-1{isolation:isolate;}.cls-2{fill:#fff;fill-rule:evenodd;}</style></defs><title>Ресурс 5</title><g id="Слой_2" data-name="Слой 2"><g id="Фигура_16" data-name="Фигура 16" class="cls-1"><g id="Фигура_16-2" data-name="Фигура 16"><path class="cls-2" d="M28.12,0H1.87A1.9,1.9,0,0,0,0,1.92V21.08A1.9,1.9,0,0,0,1.87,23H28.12A1.9,1.9,0,0,0,30,21.08V1.92A1.9,1.9,0,0,0,28.12,0Zm-4.5,1.92h3L15,13l-1.47-1.4L23.53,2A.48.48,0,0,0,23.62,1.92Zm-1.34,0-9.44,9-9.47-9Zm5.84,19.17H1.87V19.17H28.12Zm0-2.87H1.87V3.12L14.36,15a.92.92,0,0,0,1.28,0L28.12,3.07Z"/></g></g></g></svg>