<svg xmlns="http://www.w3.org/2000/svg" viewBox="0 0 30 30"><defs><style>.cls-1{isolation:isolate;}.cls-2{fill:#fff;fill-rule:evenodd;}</style></defs><title>Ресурс 6</title><g id="Слой_2" data-name="Слой 2"><g id="Фигура_17" data-name="Фигура 17" class="cls-1"><g id="Фигура_17-2" data-name="Фигура 17"><path class="cls-2" d="M8.33,17.42h4.91a1.3,1.3,0,0,0,1.3-1.3v-3a1.3,1.3,0,0,0-1.3-1.3H8.33A1.3,1.3,0,0,0,7,13.09v3A1.3,1.3,0,0,0,8.33,17.42ZM8,13.09a.36.36,0,0,1,.36-.36h4.91a.36.36,0,0,1,.36.36v3a.36.36,0,0,1-.36.36H8.33A.36.36,0,0,1,8,16.12Zm-.4-3.46.1,0H8l.1,0,.05,0a.09.09,0,0,0,0-.05V6.6q0-.28,0-.56t0-.55h0l.22.46.24.45,1.49,2.77a2,2,0,0,0,.14.24.76.76,0,0,0,.14.15.39.39,0,0,0,.14.08l.18,0h.21l.1,0,.09,0a.25.25,0,0,0,.07-.09.29.29,0,0,0,0-.13V4.87a.08.08,0,0,0,0,0l-.05,0-.1,0h-.31l-.1,0-.05,0a.08.08,0,0,0,0,0V7.51q0,.3,0,.62t0,.62h0l-.18-.35L10.19,8,10,7.68,9.8,7.3,8.65,5.15A1.58,1.58,0,0,0,8.53,5a.53.53,0,0,0-.12-.12.39.39,0,0,0-.14-.06l-.19,0H7.77a.31.31,0,0,0-.19.06A.25.25,0,0,0,7.5,5v4.5a.09.09,0,0,0,0,.05Zm9.58-.13a.18.18,0,0,0,0,.08.18.18,0,0,0,.08,0l.14,0h.41l.13,0,.08,0a.2.2,0,0,0,0-.08L19,5.81h0l1,3.68a.23.23,0,0,0,0,.08.16.16,0,0,0,.08,0l.13,0h.39l.13,0,.08,0a.2.2,0,0,0,0-.08L22.22,5a.84.84,0,0,0,0-.14.09.09,0,0,0,0-.08.19.19,0,0,0-.1,0h-.35l-.1,0a.08.08,0,0,0,0,0l0,.07L20.51,9h0L19.39,4.88l0-.07-.05,0-.1,0h-.35l-.11,0-.05,0,0,.07L17.62,9h0l-1.1-4.09a.25.25,0,0,0,0-.07.09.09,0,0,0,0,0l-.1,0H16a.2.2,0,0,0-.1,0,.09.09,0,0,0,0,.08.67.67,0,0,0,0,.14Zm-4.43.14h2.34l.05,0,0,0a.25.25,0,0,0,0-.08.82.82,0,0,0,0-.12.89.89,0,0,0,0-.13.23.23,0,0,0,0-.08l0,0-.05,0H13.13V7.35h1.69l0,0a.24.24,0,0,0,0-.08.76.76,0,0,0,0-.12.87.87,0,0,0,0-.12.24.24,0,0,0,0-.08l0,0-.05,0H13.13V5.3h2l0,0a.35.35,0,0,0,0-.08.66.66,0,0,0,0-.12.71.71,0,0,0,0-.13.39.39,0,0,0,0-.08.11.11,0,0,0,0,0l-.05,0H12.73a.27.27,0,0,0-.16.06.24.24,0,0,0-.08.21V9.37a.24.24,0,0,0,.08.21A.27.27,0,0,0,12.73,9.64Zm10.06-.31.15.11.28.12a2.5,2.5,0,0,0,.37.1,2.34,2.34,0,0,0,.45,0,2.2,2.2,0,0,0,.65-.09,1.52,1.52,0,0,0,.53-.28,1.31,1.31,0,0,0,.35-.45,1.41,1.41,0,0,0,.13-.61,1.21,1.21,0,0,0-.1-.5,1.23,1.23,0,0,0-.25-.37A1.7,1.7,0,0,0,25,7.12l-.41-.21-.41-.19a2.23,2.23,0,0,1-.36-.21,1,1,0,0,1-.25-.26.64.64,0,0,1-.09-.35.71.71,0,0,1,0-.26.58.58,0,0,1,.15-.21.73.73,0,0,1,.25-.15,1,1,0,0,1,.35-.05,1.32,1.32,0,0,1,.39.05,1.91,1.91,0,0,1,.3.12l.22.12a.3.3,0,0,0,.13.05l0,0a.11.11,0,0,0,0-.05.47.47,0,0,0,0-.09,1.14,1.14,0,0,0,0-.12s0-.09,0-.12a.51.51,0,0,0,0-.08l0-.05,0-.06L25.2,4.9l-.26-.11-.31-.08-.33,0a2,2,0,0,0-.59.08,1.38,1.38,0,0,0-.47.25,1.12,1.12,0,0,0-.31.4,1.28,1.28,0,0,0-.11.54,1.23,1.23,0,0,0,.1.51,1.28,1.28,0,0,0,.25.37,1.71,1.71,0,0,0,.35.28l.4.21.41.19a2.18,2.18,0,0,1,.35.2,1,1,0,0,1,.25.26.64.64,0,0,1,.09.35.83.83,0,0,1-.07.34.69.69,0,0,1-.19.25.91.91,0,0,1-.3.16,1.26,1.26,0,0,1-.39.06,1.66,1.66,0,0,1-.49-.07,2.43,2.43,0,0,1-.36-.14L23,8.81a.31.31,0,0,0-.15-.06h-.05a.1.1,0,0,0,0,0,.33.33,0,0,0,0,.09,1,1,0,0,0,0,.14.67.67,0,0,0,0,.19A.28.28,0,0,0,22.79,9.33Zm2.52,5.27H16.88a.47.47,0,0,0,0,.94h8.44a.47.47,0,0,0,0-.94Zm0-2.81H16.88a.47.47,0,0,0,0,.94h8.44a.47.47,0,0,0,0-.94ZM27.66,0H5.15A2.34,2.34,0,0,0,2.81,2.34v8.91H2.34A2.34,2.34,0,0,0,0,13.59V24.43A5.57,5.57,0,0,0,5.57,30H24.43A5.57,5.57,0,0,0,30,24.43V2.34A2.34,2.34,0,0,0,27.66,0Zm.46,24.43a3.7,3.7,0,0,1-3.69,3.69H5.57a3.7,3.7,0,0,1-3.69-3.69V13.59a.46.46,0,0,1,.46-.46h.48V25.31a.94.94,0,0,0,1.88,0v-23a.46.46,0,0,1,.46-.46H27.66a.46.46,0,0,1,.46.46Zm-2.81-7H16.88a.47.47,0,0,0,0,.94h8.44a.47.47,0,0,0,0-.94Zm0,5.63H7.5a.47.47,0,0,0,0,.94H25.31a.47.47,0,0,0,0-.94Zm0-2.81H7.5a.47.47,0,0,0,0,.94H25.31a.47.47,0,0,0,0-.94Z"/></g></g></g></svg>